<?xml version="1.0" encoding="utf-8"?>
<!-- Generator: Adobe Illustrator 23.0.3, SVG Export Plug-In . SVG Version: 6.00 Build 0)  -->
<svg version="1.1" id="Layer_1" xmlns="http://www.w3.org/2000/svg" xmlns:xlink="http://www.w3.org/1999/xlink" x="0px" y="0px"
	 viewBox="0 0 223.2 230.4" style="enable-background:new 0 0 223.2 230.4;" xml:space="preserve">
<style type="text/css">
	.st0{fill:none;stroke:#000000;stroke-miterlimit:10;}
	.st1{fill:none;stroke:#000000;stroke-width:0.5;stroke-miterlimit:10;}
	.st2{clip-path:url(#SVGID_2_);}
	.st3{fill:none;stroke:#000000;stroke-width:0.125;stroke-miterlimit:10;}
</style>
<g>
	<g>
		<g>
			<line class="st0" x1="218" y1="117.92" x2="218" y2="154"/>
			<g>
				<polygon points="213.91,150.69 214.64,150 218,153.62 221.36,150 222.09,150.69 218,155.08 				"/>
			</g>
		</g>
	</g>
	<g>
		<polygon class="st1" points="218,155.2 74,155.2 74,11.2 2,11.2 2,227.2 218,227.2 		"/>
		<g>
			<g>
				<g>
					<defs>
						
							<rect id="SVGID_1_" x="2" y="2" transform="matrix(-1 -1.224647e-16 1.224647e-16 -1 75.9474 13.1973)" width="71.95" height="9.2"/>
					</defs>
					<clipPath id="SVGID_2_">
						<use xlink:href="#SVGID_1_"  style="overflow:visible;"/>
					</clipPath>
					<g class="st2">
						<line class="st3" x1="83.89" y1="6.35" x2="32.61" y2="-37.75"/>
						<line class="st3" x1="81.74" y1="8.2" x2="30.46" y2="-35.9"/>
						<line class="st3" x1="79.59" y1="10.06" x2="28.3" y2="-34.05"/>
						<line class="st3" x1="77.43" y1="11.91" x2="26.15" y2="-32.19"/>
						<line class="st3" x1="75.28" y1="13.76" x2="24" y2="-30.34"/>
						<line class="st3" x1="73.13" y1="15.61" x2="21.85" y2="-28.49"/>
						<line class="st3" x1="70.97" y1="17.46" x2="19.69" y2="-26.64"/>
						<line class="st3" x1="68.82" y1="19.31" x2="17.54" y2="-24.79"/>
						<line class="st3" x1="66.67" y1="21.17" x2="15.39" y2="-22.94"/>
						<line class="st3" x1="64.52" y1="23.02" x2="13.23" y2="-21.08"/>
						<line class="st3" x1="62.36" y1="24.87" x2="11.08" y2="-19.23"/>
						<line class="st3" x1="60.21" y1="26.72" x2="8.93" y2="-17.38"/>
						<line class="st3" x1="58.06" y1="28.57" x2="6.77" y2="-15.53"/>
						<line class="st3" x1="55.9" y1="30.42" x2="4.62" y2="-13.68"/>
						<line class="st3" x1="53.75" y1="32.28" x2="2.47" y2="-11.83"/>
						<line class="st3" x1="51.6" y1="34.13" x2="0.31" y2="-9.97"/>
						<line class="st3" x1="49.44" y1="35.98" x2="-1.84" y2="-8.12"/>
						<line class="st3" x1="47.29" y1="37.83" x2="-3.99" y2="-6.27"/>
						<line class="st3" x1="45.14" y1="39.68" x2="-6.15" y2="-4.42"/>
						<line class="st3" x1="42.98" y1="41.53" x2="-8.3" y2="-2.57"/>
						<line class="st3" x1="40.83" y1="43.39" x2="-10.45" y2="-0.72"/>
						<line class="st3" x1="38.68" y1="45.24" x2="-12.61" y2="1.14"/>
						<line class="st3" x1="36.52" y1="47.09" x2="-14.76" y2="2.99"/>
						<line class="st3" x1="34.37" y1="48.94" x2="-16.91" y2="4.84"/>
						<line class="st3" x1="32.22" y1="50.79" x2="-19.07" y2="6.69"/>
						<line class="st3" x1="30.06" y1="52.64" x2="-21.22" y2="8.54"/>
						<line class="st3" x1="27.91" y1="54.5" x2="-23.37" y2="10.4"/>
					</g>
				</g>
				
					<rect x="2" y="2" transform="matrix(-1 -1.224647e-16 1.224647e-16 -1 75.9474 13.1973)" class="st1" width="71.95" height="9.2"/>
			</g>
		</g>
	</g>
</g>
</svg>
