solid Exported from Blender-2.79 (sub 1)
facet normal -1.000000 0.000000 0.000000
outer loop
vertex -0.010000 -0.100000 -0.100000
vertex -0.010000 -0.100000 0.100000
vertex -0.010000 0.100000 0.100000
endloop
endfacet
facet normal -1.000000 0.000000 0.000000
outer loop
vertex -0.010000 0.100000 0.100000
vertex -0.010000 0.100000 -0.100000
vertex -0.010000 -0.100000 -0.100000
endloop
endfacet
facet normal 0.000000 1.000000 0.000000
outer loop
vertex -0.010000 0.100000 -0.100000
vertex -0.010000 0.100000 0.100000
vertex 0.990000 0.100000 0.100000
endloop
endfacet
facet normal 0.000000 1.000000 0.000000
outer loop
vertex 0.990000 0.100000 0.100000
vertex 0.990000 0.100000 -0.100000
vertex -0.010000 0.100000 -0.100000
endloop
endfacet
facet normal 1.000000 0.000000 0.000000
outer loop
vertex 0.990000 0.100000 -0.100000
vertex 0.990000 0.100000 0.100000
vertex 0.990000 -0.100000 0.100000
endloop
endfacet
facet normal 1.000000 0.000000 0.000000
outer loop
vertex 0.990000 -0.100000 0.100000
vertex 0.990000 -0.100000 -0.100000
vertex 0.990000 0.100000 -0.100000
endloop
endfacet
facet normal 0.000000 -1.000000 0.000000
outer loop
vertex -0.010000 -0.100000 0.100000
vertex -0.010000 -0.100000 -0.100000
vertex 0.990000 -0.100000 -0.100000
endloop
endfacet
facet normal 0.000000 -1.000000 0.000000
outer loop
vertex 0.990000 -0.100000 -0.100000
vertex 0.990000 -0.100000 0.100000
vertex -0.010000 -0.100000 0.100000
endloop
endfacet
facet normal 0.000000 0.000000 -1.000000
outer loop
vertex 0.990000 -0.100000 -0.100000
vertex -0.010000 -0.100000 -0.100000
vertex -0.010000 0.100000 -0.100000
endloop
endfacet
facet normal 0.000000 0.000000 -1.000000
outer loop
vertex -0.010000 0.100000 -0.100000
vertex 0.990000 0.100000 -0.100000
vertex 0.990000 -0.100000 -0.100000
endloop
endfacet
facet normal 0.000000 0.000000 1.000000
outer loop
vertex 0.990000 0.100000 0.100000
vertex -0.010000 0.100000 0.100000
vertex -0.010000 -0.100000 0.100000
endloop
endfacet
facet normal 0.000000 0.000000 1.000000
outer loop
vertex -0.010000 -0.100000 0.100000
vertex 0.990000 -0.100000 0.100000
vertex 0.990000 0.100000 0.100000
endloop
endfacet
endsolid Exported from Blender-2.79 (sub 1)
